{
	"asset":{
		"generator":"Khronos glTF Blender I/O v3.5.30",
		"version":"2.0"
	},
	"scene":0,
	"scenes":[
		{
			"name":"Scene",
			"nodes":[
				0,
				1,
				2,
				3,
				4
			]
		}
	],
	"nodes":[
		{
			"mesh":0,
			"name":"Mesh_0",
			"scale":[
				0.5974766612052917,
				0.5974766612052917,
				0.5974766612052917
			],
			"translation":[
				0.03826580196619034,
				0.012698296457529068,
				-0.18439644575119019
			]
		},
		{
			"name":"Camera.001",
			"rotation":[
				0.483536034822464,
				0.33687159419059753,
				-0.20870360732078552,
				0.7804827094078064
			],
			"translation":[
				7.481131553649902,
				5.34366512298584,
				6.5076398849487305
			]
		},
		{
			"name":"Lamp",
			"rotation":[
				0.16907551884651184,
				0.7558804750442505,
				-0.2721710503101349,
				0.5709475874900818
			],
			"translation":[
				0,
				1.600000023841858,
				0
			]
		},
		{
			"name":"Light.001",
			"rotation":[
				0.16907577216625214,
				0.7558803558349609,
				-0.27217137813568115,
				0.5709474682807922
			],
			"translation":[
				4.076245307922363,
				5.903861999511719,
				-1.0054539442062378
			]
		},
		{
			"name":"Camera.002",
			"rotation":[
				0.483536034822464,
				0.33687159419059753,
				-0.20870360732078552,
				0.7804827094078064
			],
			"translation":[
				7.358891487121582,
				4.958309173583984,
				6.925790786743164
			]
		}
	],
	"materials":[
		{
			"doubleSided":true,
			"name":"Materi\u00e1l",
			"pbrMetallicRoughness":{
				"metallicFactor":0,
				"roughnessFactor":0.5
			}
		}
	],
	"meshes":[
		{
			"name":"Mesh_0",
			"primitives":[
				{
					"attributes":{
						"POSITION":0,
						"TEXCOORD_0":1,
						"NORMAL":2
					},
					"indices":3,
					"material":0
				}
			]
		}
	],
	"accessors":[
		{
			"bufferView":0,
			"componentType":5126,
			"count":92100,
			"max":[
				0.24757002294063568,
				0.9936947822570801,
				0.5537024736404419
			],
			"min":[
				-0.2141127735376358,
				-0.023580551147460938,
				-0.10329052805900574
			],
			"type":"VEC3"
		},
		{
			"bufferView":1,
			"componentType":5126,
			"count":92100,
			"type":"VEC2"
		},
		{
			"bufferView":2,
			"componentType":5126,
			"count":92100,
			"type":"VEC3"
		},
		{
			"bufferView":3,
			"componentType":5125,
			"count":92118,
			"type":"SCALAR"
		}
	],
	"bufferViews":[
		{
			"buffer":0,
			"byteLength":1105200,
			"byteOffset":0,
			"target":34962
		},
		{
			"buffer":0,
			"byteLength":736800,
			"byteOffset":1105200,
			"target":34962
		},
		{
			"buffer":0,
			"byteLength":1105200,
			"byteOffset":1842000,
			"target":34962
		},
		{
			"buffer":0,
			"byteLength":368472,
			"byteOffset":2947200,
			"target":34963
		}
	],
	"buffers":[
		{
			"byteLength":3315672,
			"uri":"mobil.bin"
		}
	]
}
