{
    "asset" : {
        "generator" : "Khronos glTF Blender I/O v1.8.19",
        "version" : "2.0"
    },
    "scene" : 0,
    "scenes" : [
        {
            "name" : "Scene",
            "nodes" : [
                0,
                1,
                2,
                3,
                4
            ]
        }
    ],
    "nodes" : [
        {
            "mesh" : 0,
            "name" : "Mesh_0",
            "scale" : [
                0.5974766612052917,
                0.5974766612052917,
                0.5974766612052917
            ],
            "translation" : [
                0.03826580196619034,
                0.012698296457529068,
                -0.18439644575119019
            ]
        },
        {
            "name" : "Camera.001",
            "rotation" : [
                0.483536034822464,
                0.33687159419059753,
                -0.20870360732078552,
                0.7804827094078064
            ],
            "translation" : [
                7.481131553649902,
                5.34366512298584,
                6.5076398849487305
            ]
        },
        {
            "name" : "Lamp",
            "rotation" : [
                0.16907551884651184,
                0.7558804750442505,
                -0.2721710503101349,
                0.5709475874900818
            ],
            "translation" : [
                0,
                1.600000023841858,
                0
            ]
        },
        {
            "name" : "Light.001",
            "rotation" : [
                0.16907575726509094,
                0.7558803558349609,
                -0.27217137813568115,
                0.570947527885437
            ],
            "translation" : [
                4.076245307922363,
                5.903861999511719,
                -1.0054539442062378
            ]
        },
        {
            "name" : "Camera.002",
            "rotation" : [
                0.483536034822464,
                0.33687159419059753,
                -0.20870360732078552,
                0.7804827094078064
            ],
            "translation" : [
                7.358891487121582,
                4.958309173583984,
                6.925790786743164
            ]
        }
    ],
    "materials" : [
        {
            "doubleSided" : true,
            "name" : "Materi\u00e1l",
            "pbrMetallicRoughness" : {
                "baseColorFactor" : [
                    0.006059715058654547,
                    0.0019668161403387785,
                    0.8000000715255737,
                    1
                ],
                "metallicFactor" : 0,
                "roughnessFactor" : 0.5
            }
        }
    ],
    "meshes" : [
        {
            "name" : "Mesh_0",
            "primitives" : [
                {
                    "attributes" : {
                        "POSITION" : 0,
                        "NORMAL" : 1,
                        "TEXCOORD_0" : 2
                    },
                    "indices" : 3,
                    "material" : 0
                }
            ]
        }
    ],
    "accessors" : [
        {
            "bufferView" : 0,
            "componentType" : 5126,
            "count" : 92118,
            "max" : [
                0.24757002294063568,
                0.9936947822570801,
                0.5537024736404419
            ],
            "min" : [
                -0.2141127735376358,
                -0.023580551147460938,
                -0.10329052805900574
            ],
            "type" : "VEC3"
        },
        {
            "bufferView" : 1,
            "componentType" : 5126,
            "count" : 92118,
            "type" : "VEC3"
        },
        {
            "bufferView" : 2,
            "componentType" : 5126,
            "count" : 92118,
            "type" : "VEC2"
        },
        {
            "bufferView" : 3,
            "componentType" : 5125,
            "count" : 92118,
            "type" : "SCALAR"
        }
    ],
    "bufferViews" : [
        {
            "buffer" : 0,
            "byteLength" : 1105416,
            "byteOffset" : 0
        },
        {
            "buffer" : 0,
            "byteLength" : 1105416,
            "byteOffset" : 1105416
        },
        {
            "buffer" : 0,
            "byteLength" : 736944,
            "byteOffset" : 2210832
        },
        {
            "buffer" : 0,
            "byteLength" : 368472,
            "byteOffset" : 2947776
        }
    ],
    "buffers" : [
        {
            "byteLength" : 3316248,
            "uri" : "untitled.bin"
        }
    ]
}
