# WaveFront *.obj file (generated by Autodesk ATF)

mtllib redukce na spulku.mtl

g Těleso1

v -12.681355 -9.845009 0.000000
v -10.506338 -9.845009 -9.529375
v -10.506338 -9.845009 9.529375
v -9.935984 28.827832 0.000000
v -9.618747 33.296614 0.000000
v -9.366190 33.839033 -2.264253
v -8.493217 34.887042 -2.158255
v -8.282448 33.839033 6.661170
v -8.032843 28.827832 -8.338203
v -8.032843 28.827832 8.338203
v -7.623767 35.154991 0.000000
v -7.460209 34.887042 6.349336
v -7.453824 33.296614 -8.783435
v -7.453824 33.296614 8.783435
v -6.177946 33.839033 -10.670964
v -5.454226 34.887042 -10.171416
v -5.358876 35.154991 -8.452691
v -5.358876 35.154991 8.452691
v -4.412073 -9.845009 -17.171340
v -4.412073 -9.845009 17.171340
v -3.174990 33.839033 14.060600
v -2.718386 -11.845009 0.000000
v -2.718386 -9.845009 0.000000
v -2.700363 28.827832 -15.024923
v -2.700363 28.827832 15.024923
v -2.591850 34.887042 13.402370
v -1.455015 33.296614 -15.554692
v -1.455015 33.296614 15.554692
v -0.426590 -11.845009 -7.053423
v -0.426590 -11.845009 7.053423
v -0.426590 -9.845009 -7.053423
v -0.426590 -9.845009 7.053423
v 0.551897 33.839033 -16.633085
v 0.828923 35.154991 -14.640490
v 0.828923 35.154991 14.640490
v 0.960568 34.887042 -15.854428
v 4.394393 -9.845009 -21.412311
v 4.394393 -9.845009 21.412311
v 4.786125 33.839033 18.238915
v 4.996575 34.887042 17.385083
v 5.005296 28.827832 -18.735772
v 5.005296 28.827832 18.735772
v 5.573410 -11.845009 -11.412678
v 5.573410 -11.845009 11.412678
v 5.573410 -9.845009 -11.412678
v 5.573410 -9.845009 11.412678
v 6.791428 -11.845009 -0.906353
v 6.791428 -11.845009 0.906353
v 6.791428 35.154991 -0.906353
v 6.791428 35.154991 0.906353
v 7.003427 33.296614 -18.762555
v 7.003427 33.296614 18.762555
v 7.956614 -11.845009 -2.294967
v 7.956614 -11.845009 2.294967
v 7.956614 35.154991 -2.294967
v 7.956614 35.154991 2.294967
v 9.281614 33.839033 -18.784766
v 9.281614 34.887042 -17.905381
v 9.281614 35.154991 -16.905382
v 9.281614 35.154991 16.905382
v 9.741781 -11.845009 -2.609740
v 9.741781 -11.845009 2.609740
v 9.741781 35.154991 -2.609740
v 9.741781 35.154991 2.609740
v 11.311631 -11.845009 -1.703387
v 11.311631 -11.845009 1.703387
v 11.311631 35.154991 -1.703387
v 11.311631 35.154991 1.703387
v 11.931614 -11.845009 0.000000
v 11.931614 35.154991 0.000000
v 12.989818 -11.845009 -11.412678
v 12.989818 -11.845009 11.412678
v 12.989818 -9.845009 -11.412678
v 12.989818 -9.845009 11.412678
v 13.557931 28.827832 -18.735772
v 13.557931 28.827832 18.735772
v 13.566651 34.887042 17.385083
v 13.777102 33.839033 18.238915
v 14.168833 -9.845009 -21.412311
v 14.168833 -9.845009 21.412311
v 15.983773 33.296614 -17.672144
v 15.983773 33.296614 17.672144
v 17.602659 34.887042 -15.854428
v 17.734305 35.154991 -14.640490
v 17.734305 35.154991 14.640490
v 18.011330 33.839033 -16.633085
v 18.989818 -11.845009 -7.053423
v 18.989818 -11.845009 7.053423
v 18.989818 -9.845009 -7.053423
v 18.989818 -9.845009 7.053423
v 21.155078 34.887042 13.402370
v 21.263590 28.827832 -15.024923
v 21.263590 28.827832 15.024923
v 21.281614 -11.845009 0.000000
v 21.281614 -9.845009 0.000000
v 21.738217 33.839033 14.060600
v 22.975302 -9.845009 -17.171340
v 22.975302 -9.845009 17.171340
v 23.428736 33.296614 -12.533257
v 23.428736 33.296614 12.533257
v 23.922102 35.154991 -8.452691
v 23.922102 35.154991 8.452691
v 24.017453 34.887042 -10.171416
v 24.741173 33.839033 -10.670964
v 26.023436 34.887042 6.349336
v 26.186996 35.154991 0.000000
v 26.596072 28.827832 -8.338203
v 26.596072 28.827832 8.338203
v 26.845675 33.839033 6.661170
v 27.056444 34.887042 -2.158255
v 27.632763 33.296614 -4.523152
v 27.632763 33.296614 4.523152
v 27.929418 33.839033 -2.264253
v 28.499212 28.827832 0.000000
v 29.069564 -9.845009 -9.529375
v 29.069564 -9.845009 9.529375
v 31.244583 -9.845009 0.000000
vt 2.255662 0.000000 0.000000
vt 2.255662 0.916971 0.000000
vt 2.255662 1.833942 0.000000
vt 2.255662 2.750913 0.000000
vt 2.255662 3.667884 0.000000
vt 2.255662 4.584855 0.000000
vt 2.255662 5.501825 0.000000
vt 2.255662 -6.418797 0.000000
vt 2.255662 -5.501825 0.000000
vt 2.255662 -4.584855 0.000000
vt 2.255662 -3.667884 0.000000
vt 2.255662 -2.750913 0.000000
vt 2.255662 -1.833942 0.000000
vt 2.255662 -0.916971 0.000000
vt -2.069357 0.000000 0.000000
vt -2.069357 -0.987507 0.000000
vt -2.069357 -1.975014 0.000000
vt -2.069357 -2.962522 0.000000
vt -2.069357 -3.950029 0.000000
vt -2.069357 -4.937536 0.000000
vt -2.069357 6.912550 0.000000
vt -2.069357 5.925043 0.000000
vt -2.069357 4.937536 0.000000
vt -2.069357 3.950029 0.000000
vt -2.069357 2.962522 0.000000
vt -2.069357 1.975014 0.000000
vt -2.069357 0.987507 0.000000
vt -1.621354 -6.418797 0.000000
vt -1.621354 0.916971 0.000000
vt -1.621354 0.000000 0.000000
vt -1.621354 1.833942 0.000000
vt -1.621354 2.750913 0.000000
vt -1.621354 3.667884 0.000000
vt -1.621354 4.584855 0.000000
vt -1.621354 5.501825 0.000000
vt -1.621354 -5.501825 0.000000
vt -1.621354 -4.584855 0.000000
vt -1.621354 -3.667884 0.000000
vt -1.621354 -2.750913 0.000000
vt -1.621354 -1.833942 0.000000
vt -1.621354 -0.916971 0.000000
vt -1.621354 6.418797 0.000000
vt -1.621354 6.418797 0.000000
vt -2.069357 -5.925044 0.000000
vt -2.069357 -5.925044 0.000000
vt -1.621354 6.418797 0.000000
vt 2.255662 -7.335768 0.000000
vt 0.000000 0.265000 0.000000
vt 0.170339 0.203002 0.000000
vt 0.260974 0.046017 0.000000
vt 0.229497 -0.132500 0.000000
vt 0.090635 -0.249019 0.000000
vt -0.090635 -0.249019 0.000000
vt -0.229497 -0.132500 0.000000
vt -0.260974 0.046017 0.000000
vt -0.170339 0.203002 0.000000
vt 0.000000 -1.690538 0.000000
vt 0.845269 -1.464049 0.000000
vt 1.464049 -0.845269 0.000000
vt 1.690538 0.000000 0.000000
vt 1.464049 0.845269 0.000000
vt 0.845269 1.464049 0.000000
vt 0.000000 1.690538 0.000000
vt -0.845269 1.464049 0.000000
vt -1.464049 0.845269 0.000000
vt -1.690538 0.000000 0.000000
vt -1.464049 -0.845269 0.000000
vt -0.845269 -1.464049 0.000000
vt 0.000000 1.465000 0.000000
vt 0.170339 1.403002 0.000000
vt 0.260974 1.246017 0.000000
vt 0.229497 1.067500 0.000000
vt 0.090635 0.950981 0.000000
vt -0.090635 0.950981 0.000000
vt -0.229497 1.067500 0.000000
vt -0.260974 1.246017 0.000000
vt -0.170339 1.403002 0.000000
vt 0.000000 0.000000 0.000000
vt 0.705342 0.229180 0.000000
vt 1.141268 0.829180 0.000000
vt 1.141268 1.570820 0.000000
vt 0.705342 2.170820 0.000000
vt 0.000000 2.400000 0.000000
vt -0.705342 2.170820 0.000000
vt -1.141268 1.570820 0.000000
vt -1.141268 0.829180 0.000000
vt -0.705342 0.229180 0.000000
vt 0.100000 0.000000 0.000000
vt 0.100000 0.753982 0.000000
vt 0.100000 1.507965 0.000000
vt 0.100000 2.261947 0.000000
vt 0.100000 3.015929 0.000000
vt 0.100000 -3.769912 0.000000
vt 0.100000 -3.015929 0.000000
vt 0.100000 -2.261947 0.000000
vt 0.100000 -1.507965 0.000000
vt 0.100000 -0.753982 0.000000
vt -0.100000 0.000000 0.000000
vt -0.100000 -0.753982 0.000000
vt -0.100000 -1.507965 0.000000
vt -0.100000 -2.261947 0.000000
vt -0.100000 -3.015929 0.000000
vt -0.100000 3.769912 0.000000
vt -0.100000 3.015929 0.000000
vt -0.100000 2.261947 0.000000
vt -0.100000 1.507965 0.000000
vt -0.100000 0.753982 0.000000
vt -0.100000 -3.769912 0.000000
vt 0.100000 3.769912 0.000000
vt 0.000000 0.996297 0.000000
vt -0.705342 1.225477 0.000000
vt -1.141268 1.825477 0.000000
vt -1.141268 2.567117 0.000000
vt -0.705342 3.167117 0.000000
vt 0.000000 3.396297 0.000000
vt 0.705342 3.167117 0.000000
vt 1.141268 2.567117 0.000000
vt 1.141268 1.825477 0.000000
vt 0.705342 1.225477 0.000000
vt 0.000000 0.000000 0.000000
vt 0.952937 0.217502 0.000000
vt 1.717134 0.826928 0.000000
vt 2.141231 1.707575 0.000000
vt 2.141231 2.685019 0.000000
vt 1.717134 3.565666 0.000000
vt 0.952937 4.175092 0.000000
vt 0.000000 4.392594 0.000000
vt -0.952937 4.175092 0.000000
vt -1.717134 3.565666 0.000000
vt -2.141231 2.685019 0.000000
vt -2.141231 1.707575 0.000000
vt -1.717134 0.826928 0.000000
vt -0.952937 0.217502 0.000000
vt 4.700000 -0.832522 0.000000
vt 4.700000 -0.647517 0.000000
vt 4.700000 -0.462512 0.000000
vt 4.700000 -0.277507 0.000000
vt 4.700000 -0.092502 0.000000
vt 4.700000 0.092502 0.000000
vt 4.700000 0.277507 0.000000
vt 4.700000 0.462512 0.000000
vt 4.700000 0.647517 0.000000
vt 0.000000 0.832522 0.000000
vt 0.000000 0.647517 0.000000
vt 0.000000 0.462512 0.000000
vt 0.000000 0.277507 0.000000
vt 0.000000 0.092502 0.000000
vt 0.000000 -0.092502 0.000000
vt 0.000000 -0.277507 0.000000
vt 0.000000 -0.462512 0.000000
vt 0.000000 -0.647517 0.000000
vt 0.000000 -0.832522 0.000000
vt 4.700000 0.832522 0.000000
vt -0.014174 -2.869626 0.000000
vt -0.014174 -1.986664 0.000000
vt -0.014174 -1.103702 0.000000
vt -0.014174 -0.220740 0.000000
vt -0.014174 0.662221 0.000000
vt -0.014174 1.545183 0.000000
vt -0.014174 2.428145 0.000000
vt -0.014174 3.311106 0.000000
vt -0.014174 4.194068 0.000000
vt -0.014174 -6.401473 0.000000
vt -0.014174 -5.518511 0.000000
vt -0.014174 -4.635549 0.000000
vt -0.014174 -3.752587 0.000000
vt -0.314159 -2.869626 0.000000
vt -0.314159 -3.826168 0.000000
vt -0.314159 -4.782709 0.000000
vt -0.314159 5.739252 0.000000
vt -0.314159 4.782709 0.000000
vt -0.314159 3.826168 0.000000
vt -0.314159 2.869626 0.000000
vt -0.314159 1.913084 0.000000
vt -0.314159 0.956542 0.000000
vt -0.314159 0.000000 0.000000
vt -0.314159 -0.956542 0.000000
vt -0.314159 -1.913084 0.000000
vt -0.069813 5.739252 0.000000
vt -0.209440 5.739252 0.000000
vt -0.069813 -2.207404 0.000000
vt -0.209440 -2.207404 0.000000
vt -0.209440 -3.090366 0.000000
vt -0.069813 -3.090366 0.000000
vt -0.069813 -1.324443 0.000000
vt -0.209440 -1.324443 0.000000
vt -0.069813 -0.441481 0.000000
vt -0.209440 -0.441481 0.000000
vt -0.069813 0.441481 0.000000
vt -0.209440 0.441481 0.000000
vt -0.069813 1.324443 0.000000
vt -0.209440 1.324443 0.000000
vt -0.069813 2.207404 0.000000
vt -0.209440 2.207404 0.000000
vt -0.069813 3.090366 0.000000
vt -0.209440 3.090366 0.000000
vt -0.069813 3.973328 0.000000
vt -0.209440 3.973328 0.000000
vt -0.069813 4.856289 0.000000
vt -0.209440 4.856289 0.000000
vt -0.069813 -4.856289 0.000000
vt -0.209440 -4.856289 0.000000
vt -0.069813 -3.973328 0.000000
vt -0.209440 -3.973328 0.000000
vt -0.069813 -5.739252 0.000000
vt -0.069813 -5.739252 0.000000
vt -0.014174 5.077030 0.000000
vt -0.014174 5.077030 0.000000
vt -0.209440 6.622213 0.000000
vt -0.209440 6.622213 0.000000
vt -0.069813 -5.739252 0.000000
vt -0.314159 -5.739252 0.000000
vn -0.099749 0.007081 0.000000
vn -0.089871 0.007081 0.043279
vn -0.062192 0.007081 0.077987
vn -0.022196 0.007081 0.097248
vn 0.022196 0.007081 0.097248
vn 0.062192 0.007081 0.077987
vn 0.089871 0.007081 0.043279
vn 0.099749 0.007081 0.000000
vn 0.089871 0.007081 -0.043279
vn 0.062192 0.007081 -0.077987
vn 0.022196 0.007081 -0.097248
vn -0.022196 0.007081 -0.097248
vn -0.062192 0.007081 -0.077987
vn -0.089871 0.007081 -0.043279
vn -0.099749 0.007081 0.000000
vn -0.088323 0.007081 -0.046356
vn -0.056664 0.007081 -0.082092
vn -0.012023 0.007081 -0.099022
vn 0.035371 0.007081 -0.093267
vn 0.074663 0.007081 -0.066146
vn 0.096850 0.007081 -0.023871
vn 0.096850 0.007081 0.023871
vn 0.074663 0.007081 0.066146
vn 0.035371 0.007081 0.093267
vn -0.012023 0.007081 0.099022
vn -0.056664 0.007081 0.082092
vn -0.088323 0.007081 0.046356
vn 0.099749 0.007081 0.000000
vn -0.089871 0.007081 0.043279
vn -0.099749 0.007081 0.000000
vn -0.062192 0.007081 0.077987
vn -0.022196 0.007081 0.097248
vn 0.022196 0.007081 0.097248
vn 0.062192 0.007081 0.077987
vn 0.089871 0.007081 0.043279
vn 0.089871 0.007081 -0.043279
vn 0.062192 0.007081 -0.077987
vn 0.022196 0.007081 -0.097248
vn -0.022196 0.007081 -0.097248
vn -0.062192 0.007081 -0.077987
vn -0.089871 0.007081 -0.043279
vn 0.099749 0.007081 0.000000
vn 0.099749 0.007081 0.000000
vn 0.096850 0.007081 -0.023871
vn 0.096850 0.007081 -0.023871
vn 0.099749 0.007081 0.000000
vn 0.089871 0.007081 0.043279
vn 0.000000 0.100000 0.000000
vn 0.000000 0.100000 0.000000
vn 0.000000 0.100000 0.000000
vn 0.000000 0.100000 0.000000
vn 0.000000 0.100000 0.000000
vn 0.000000 0.100000 0.000000
vn 0.000000 0.100000 0.000000
vn 0.000000 0.100000 0.000000
vn 0.000000 0.100000 0.000000
vn 0.000000 0.100000 0.000000
vn 0.000000 0.100000 0.000000
vn 0.000000 0.100000 0.000000
vn 0.000000 0.100000 0.000000
vn 0.000000 0.100000 0.000000
vn 0.000000 0.100000 0.000000
vn 0.000000 0.100000 0.000000
vn 0.000000 0.100000 0.000000
vn 0.000000 0.100000 0.000000
vn 0.000000 0.100000 0.000000
vn 0.000000 0.100000 0.000000
vn 0.000000 0.100000 0.000000
vn 0.000000 -0.100000 0.000000
vn 0.000000 -0.100000 0.000000
vn 0.000000 -0.100000 0.000000
vn 0.000000 -0.100000 0.000000
vn 0.000000 -0.100000 0.000000
vn 0.000000 -0.100000 0.000000
vn 0.000000 -0.100000 0.000000
vn 0.000000 -0.100000 0.000000
vn 0.000000 -0.100000 0.000000
vn 0.000000 -0.100000 0.000000
vn 0.000000 -0.100000 0.000000
vn 0.000000 -0.100000 0.000000
vn 0.000000 -0.100000 0.000000
vn 0.000000 -0.100000 0.000000
vn 0.000000 -0.100000 0.000000
vn 0.000000 -0.100000 0.000000
vn 0.000000 -0.100000 0.000000
vn 0.000000 -0.100000 0.000000
vn 0.000000 -0.100000 0.000000
vn -0.100000 0.000000 0.000000
vn -0.080902 0.000000 0.058779
vn -0.030902 0.000000 0.095106
vn 0.030902 0.000000 0.095106
vn 0.080902 0.000000 0.058779
vn 0.100000 0.000000 0.000000
vn 0.080902 0.000000 -0.058779
vn 0.030902 0.000000 -0.095106
vn -0.030902 0.000000 -0.095106
vn -0.080902 0.000000 -0.058779
vn -0.100000 0.000000 0.000000
vn -0.080902 0.000000 -0.058779
vn -0.030902 0.000000 -0.095106
vn 0.030902 0.000000 -0.095106
vn 0.080902 0.000000 -0.058779
vn 0.100000 0.000000 0.000000
vn 0.080902 0.000000 0.058779
vn 0.030902 0.000000 0.095106
vn -0.030902 0.000000 0.095106
vn -0.080902 0.000000 0.058779
vn 0.100000 0.000000 0.000000
vn 0.100000 0.000000 0.000000
vn 0.000000 -0.100000 0.000000
vn 0.000000 -0.100000 0.000000
vn 0.000000 -0.100000 0.000000
vn 0.000000 -0.100000 0.000000
vn 0.000000 -0.100000 0.000000
vn 0.000000 -0.100000 0.000000
vn 0.000000 -0.100000 0.000000
vn 0.000000 -0.100000 0.000000
vn 0.000000 -0.100000 0.000000
vn 0.000000 -0.100000 0.000000
vn 0.000000 -0.100000 0.000000
vn 0.000000 -0.100000 0.000000
vn 0.000000 -0.100000 0.000000
vn 0.000000 -0.100000 0.000000
vn 0.000000 -0.100000 0.000000
vn 0.000000 -0.100000 0.000000
vn 0.000000 -0.100000 0.000000
vn 0.000000 -0.100000 0.000000
vn 0.000000 -0.100000 0.000000
vn 0.000000 -0.100000 0.000000
vn 0.000000 -0.100000 0.000000
vn 0.000000 -0.100000 0.000000
vn 0.000000 -0.100000 0.000000
vn 0.000000 -0.100000 0.000000
vn -0.100000 0.000000 0.000000
vn -0.076604 0.000000 0.064279
vn -0.017365 0.000000 0.098481
vn 0.050000 0.000000 0.086603
vn 0.093969 0.000000 0.034202
vn 0.093969 0.000000 -0.034202
vn 0.050000 0.000000 -0.086603
vn -0.017365 0.000000 -0.098481
vn -0.076604 0.000000 -0.064279
vn -0.100000 0.000000 0.000000
vn -0.076604 0.000000 -0.064279
vn -0.017365 0.000000 -0.098481
vn 0.050000 0.000000 -0.086603
vn 0.093969 0.000000 -0.034202
vn 0.093969 0.000000 0.034202
vn 0.050000 0.000000 0.086603
vn -0.017365 0.000000 0.098481
vn -0.076604 0.000000 0.064279
vn -0.100000 0.000000 0.000000
vn -0.100000 0.000000 0.000000
vn -0.099749 0.007081 0.000000
vn -0.088323 0.007081 0.046356
vn -0.056664 0.007081 0.082092
vn -0.012023 0.007081 0.099022
vn 0.035371 0.007081 0.093267
vn 0.074663 0.007081 0.066146
vn 0.096850 0.007081 0.023871
vn 0.096850 0.007081 -0.023871
vn 0.074663 0.007081 -0.066146
vn 0.035371 0.007081 -0.093267
vn -0.012023 0.007081 -0.099022
vn -0.056664 0.007081 -0.082092
vn -0.088323 0.007081 -0.046356
vn 0.000000 0.100000 0.000000
vn 0.000000 0.100000 0.000000
vn 0.000000 0.100000 0.000000
vn 0.000000 0.100000 0.000000
vn 0.000000 0.100000 0.000000
vn 0.000000 0.100000 0.000000
vn 0.000000 0.100000 0.000000
vn 0.000000 0.100000 0.000000
vn 0.000000 0.100000 0.000000
vn 0.000000 0.100000 0.000000
vn 0.000000 0.100000 0.000000
vn 0.000000 0.100000 0.000000
vn 0.000000 0.034202 -0.093969
vn 0.000000 0.086603 -0.050000
vn -0.087863 0.034202 0.033322
vn -0.046751 0.086603 0.017730
vn -0.049635 0.086603 -0.006027
vn -0.093284 0.034202 -0.011327
vn -0.062313 0.034202 0.070337
vn -0.033156 0.086603 0.037426
vn -0.022488 0.034202 0.091239
vn -0.011966 0.086603 0.048547
vn 0.022488 0.034202 0.091239
vn 0.011966 0.086603 0.048547
vn 0.062313 0.034202 0.070337
vn 0.033156 0.086603 0.037426
vn 0.087863 0.034202 0.033322
vn 0.046751 0.086603 0.017730
vn 0.093284 0.034202 -0.011327
vn 0.049635 0.086603 -0.006027
vn 0.077335 0.034202 -0.053381
vn 0.041149 0.086603 -0.028403
vn 0.043670 0.034202 -0.083206
vn 0.023236 0.086603 -0.044273
vn -0.043670 0.034202 -0.083206
vn -0.023236 0.086603 -0.044273
vn -0.077335 0.034202 -0.053381
vn -0.041149 0.086603 -0.028403
vn 0.000000 0.034202 -0.093969
vn 0.000000 0.034202 -0.093969
vn 0.035371 0.007081 -0.093267
vn 0.035371 0.007081 -0.093267
vn -0.023236 0.086603 -0.044273
vn -0.023236 0.086603 -0.044273
vn 0.000000 0.034202 -0.093969
vn 0.000000 0.100000 0.000000
usemtl 191,191,191
f 3/2/2 10/29/29 1/1/1
f 1/1/1 10/29/29 4/30/30
f 1/1/1 4/30/30 2/14/14
f 2/14/14 4/30/30 9/41/41
f 2/14/14 9/41/41 19/13/13
f 19/13/13 9/41/41 24/40/40
f 19/13/13 24/40/40 37/12/12
f 37/12/12 24/40/40 27/17/17
f 37/12/12 27/17/17 41/39/39
f 41/39/39 27/17/17 51/18/18
f 41/39/39 51/18/18 37/12/12
f 37/12/12 51/18/18 79/11/11
f 79/11/11 51/18/18 75/38/38
f 79/11/11 75/38/38 81/19/19
f 81/19/19 75/38/38 51/18/18
f 10/29/29 3/2/2 25/31/31
f 25/31/31 3/2/2 20/3/3
f 25/31/31 20/3/3 28/26/26
f 28/26/26 20/3/3 42/32/32
f 28/26/26 42/32/32 52/25/25
f 52/25/25 42/32/32 38/4/4
f 52/25/25 38/4/4 76/33/33
f 76/33/33 38/4/4 80/5/5
f 76/33/33 80/5/5 82/24/24
f 82/24/24 80/5/5 98/6/6
f 82/24/24 98/6/6 93/34/34
f 93/34/34 98/6/6 100/23/23
f 93/34/34 100/23/23 82/24/24
f 20/3/3 38/4/4 42/32/32
f 98/6/6 116/7/7 100/23/23
f 100/23/23 116/7/7 108/35/35
f 100/23/23 108/35/35 112/22/22
f 112/22/22 108/35/35 114/42/42
f 112/22/22 114/43/43 111/21/21
f 111/44/44 114/28/28 107/36/36
f 111/45/45 107/36/36 99/20/20
f 99/20/20 107/36/36 115/9/9
f 99/20/20 115/9/9 97/10/10
f 108/35/35 116/7/7 114/46/46
f 114/28/28 116/47/47 117/8/8
f 114/28/28 117/8/8 107/36/36
f 107/36/36 117/8/8 115/9/9
f 79/11/11 81/19/19 97/10/10
f 97/10/10 81/19/19 92/37/37
f 97/10/10 92/37/37 99/20/20
f 99/20/20 92/37/37 81/19/19
f 13/16/16 9/41/41 5/15/15
f 5/15/15 9/41/41 4/30/30
f 5/15/15 4/30/30 10/29/29
f 9/41/41 13/16/16 24/40/40
f 24/40/40 13/16/16 27/17/17
f 82/24/24 52/25/25 76/33/33
f 28/26/26 14/27/27 25/31/31
f 25/31/31 14/27/27 10/29/29
f 14/27/27 5/15/15 10/29/29
f 68/49/49 102/62/62 70/48/48
f 70/48/48 102/62/62 106/63/63
f 70/48/48 106/63/63 101/64/64
f 102/62/62 68/49/49 85/61/61
f 85/61/61 68/49/49 64/50/50
f 85/61/61 64/50/50 60/60/60
f 60/60/60 64/50/50 56/51/51
f 60/60/60 56/51/51 35/59/59
f 35/59/59 56/51/51 18/58/58
f 18/58/58 56/51/51 50/52/52
f 18/58/58 50/52/52 11/57/57
f 11/57/57 50/52/52 49/53/53
f 11/57/57 49/53/53 17/68/68
f 17/68/68 49/53/53 55/54/54
f 17/68/68 55/54/54 34/67/67
f 34/67/67 55/54/54 59/66/66
f 59/66/66 55/54/54 63/55/55
f 59/66/66 63/55/55 84/65/65
f 84/65/65 63/55/55 67/56/56
f 84/65/65 67/56/56 101/64/64
f 101/64/64 67/56/56 70/48/48
f 65/70/70 87/82/82 69/69/69
f 69/69/69 87/82/82 94/83/83
f 69/69/69 94/83/83 88/84/84
f 87/82/82 65/70/70 71/81/81
f 71/81/81 65/70/70 61/71/71
f 71/81/81 61/71/71 43/80/80
f 43/80/80 61/71/71 53/72/72
f 43/80/80 53/72/72 29/79/79
f 29/79/79 53/72/72 47/73/73
f 29/79/79 47/73/73 22/78/78
f 22/78/78 47/73/73 48/74/74
f 22/78/78 48/74/74 30/87/87
f 30/87/87 48/74/74 54/75/75
f 30/87/87 54/75/75 44/86/86
f 44/86/86 54/75/75 62/76/76
f 44/86/86 62/76/76 72/85/85
f 72/85/85 62/76/76 66/77/77
f 72/85/85 66/77/77 88/84/84
f 88/84/84 66/77/77 69/69/69
f 30/89/89 32/107/107 22/88/88
f 22/88/88 32/107/107 23/98/98
f 22/88/88 23/98/98 29/97/97
f 29/97/97 23/98/98 31/99/99
f 29/97/97 31/99/99 43/96/96
f 43/96/96 31/99/99 45/100/100
f 43/96/96 45/100/100 71/95/95
f 71/95/95 45/100/100 73/101/101
f 71/95/95 73/101/101 87/94/94
f 87/94/94 73/101/101 89/102/102
f 87/94/94 89/102/102 94/93/93
f 94/93/93 89/102/102 95/108/108
f 94/109/109 95/103/103 88/92/92
f 88/92/92 95/103/103 90/104/104
f 88/92/92 90/104/104 72/91/91
f 72/91/91 90/104/104 74/105/105
f 72/91/91 74/105/105 44/90/90
f 44/90/90 74/105/105 46/106/106
f 44/90/90 46/106/106 30/89/89
f 30/89/89 46/106/106 32/107/107
f 32/111/111 3/133/133 23/110/110
f 23/110/110 3/133/133 1/120/120
f 23/110/110 1/120/120 2/121/121
f 3/133/133 32/111/111 20/132/132
f 20/132/132 32/111/111 46/112/112
f 20/132/132 46/112/112 38/131/131
f 38/131/131 46/112/112 74/113/113
f 38/131/131 74/113/113 80/130/130
f 80/130/130 74/113/113 98/129/129
f 98/129/129 74/113/113 90/114/114
f 98/129/129 90/114/114 116/128/128
f 116/128/128 90/114/114 95/115/115
f 116/128/128 95/115/115 117/127/127
f 117/127/127 95/115/115 115/126/126
f 115/126/126 95/115/115 89/116/116
f 115/126/126 89/116/116 97/125/125
f 97/125/125 89/116/116 73/117/117
f 97/125/125 73/117/117 79/124/124
f 79/124/124 73/117/117 37/123/123
f 37/123/123 73/117/117 45/118/118
f 37/123/123 45/118/118 19/122/122
f 19/122/122 45/118/118 31/119/119
f 19/122/122 31/119/119 2/121/121
f 2/121/121 31/119/119 23/110/110
f 67/135/135 65/151/151 70/134/134
f 70/134/134 65/151/151 69/152/152
f 70/153/153 69/143/143 68/142/142
f 68/142/142 69/143/143 66/144/144
f 68/142/142 66/144/144 64/141/141
f 64/141/141 66/144/144 62/145/145
f 64/141/141 62/145/145 56/140/140
f 56/140/140 62/145/145 54/146/146
f 56/140/140 54/146/146 50/139/139
f 50/139/139 54/146/146 48/147/147
f 50/139/139 48/147/147 49/138/138
f 49/138/138 48/147/147 47/148/148
f 49/138/138 47/148/148 55/137/137
f 55/137/137 47/148/148 53/149/149
f 55/137/137 53/149/149 63/136/136
f 63/136/136 53/149/149 61/150/150
f 63/136/136 61/150/150 67/135/135
f 67/135/135 61/150/150 65/151/151
f 14/155/155 8/181/181 5/154/154
f 5/154/154 8/181/181 6/184/184
f 5/154/154 6/184/184 13/166/166
f 13/166/166 6/184/184 15/203/203
f 13/166/166 15/203/203 27/165/165
f 27/165/165 15/203/203 33/201/201
f 27/165/165 33/201/201 51/164/164
f 51/164/164 33/201/201 57/205/205
f 51/164/164 57/206/206 81/163/163
f 81/207/207 57/179/179 86/199/199
f 81/208/208 86/199/199 99/162/162
f 99/162/162 86/199/199 104/197/197
f 99/162/162 104/197/197 111/161/161
f 111/161/161 104/197/197 113/195/195
f 111/161/161 113/195/195 112/160/160
f 112/160/160 113/195/195 109/193/193
f 112/160/160 109/193/193 100/159/159
f 100/159/159 109/193/193 96/191/191
f 100/159/159 96/191/191 82/158/158
f 82/158/158 96/191/191 78/189/189
f 82/158/158 78/189/189 52/157/157
f 52/157/157 78/189/189 39/187/187
f 52/157/157 39/187/187 28/156/156
f 28/156/156 39/187/187 21/185/185
f 28/156/156 21/185/185 14/155/155
f 14/155/155 21/185/185 8/181/181
f 17/168/168 7/183/183 11/167/167
f 11/167/167 7/183/183 12/182/182
f 11/167/167 12/182/182 18/178/178
f 18/178/178 12/182/182 26/186/186
f 18/178/178 26/186/186 35/177/177
f 35/177/177 26/186/186 40/188/188
f 35/177/177 40/188/188 60/176/176
f 60/176/176 40/188/188 77/190/190
f 60/176/176 77/190/190 85/175/175
f 85/175/175 77/190/190 91/192/192
f 85/175/175 91/192/192 102/174/174
f 102/174/174 91/192/192 105/194/194
f 102/174/174 105/194/194 106/173/173
f 106/173/173 105/194/194 110/196/196
f 106/173/173 110/196/196 101/172/172
f 101/172/172 110/196/196 103/198/198
f 101/172/172 103/198/198 84/171/171
f 84/171/171 103/198/198 83/200/200
f 84/171/171 83/200/200 59/170/170
f 59/170/170 83/200/200 58/180/180
f 59/170/170 58/180/180 36/209/209
f 36/210/210 58/180/180 57/179/179
f 36/202/202 57/211/211 33/201/201
f 7/183/183 17/168/168 16/204/204
f 16/204/204 17/168/168 34/169/169
f 16/204/204 34/169/169 36/202/202
f 36/202/202 34/169/169 59/212/212
f 57/179/179 58/180/180 86/199/199
f 86/199/199 58/180/180 83/200/200
f 86/199/199 83/200/200 104/197/197
f 104/197/197 83/200/200 103/198/198
f 104/197/197 103/198/198 113/195/195
f 113/195/195 103/198/198 110/196/196
f 113/195/195 110/196/196 109/193/193
f 109/193/193 110/196/196 105/194/194
f 109/193/193 105/194/194 96/191/191
f 96/191/191 105/194/194 91/192/192
f 96/191/191 91/192/192 78/189/189
f 78/189/189 91/192/192 77/190/190
f 78/189/189 77/190/190 39/187/187
f 39/187/187 77/190/190 40/188/188
f 39/187/187 40/188/188 21/185/185
f 21/185/185 40/188/188 26/186/186
f 21/185/185 26/186/186 8/181/181
f 8/181/181 26/186/186 12/182/182
f 8/181/181 12/182/182 6/184/184
f 6/184/184 12/182/182 7/183/183
f 6/184/184 7/183/183 15/203/203
f 15/203/203 7/183/183 16/204/204
f 15/203/203 16/204/204 33/201/201
f 33/201/201 16/204/204 36/202/202

# 117 vertices
# 212 texture params
# 212 normals
# 234 facets

# 1 groups
