{
    "asset" : {
        "generator" : "Khronos glTF Blender I/O v1.8.19",
        "version" : "2.0"
    },
    "scene" : 0,
    "scenes" : [
        {
            "name" : "Scene",
            "nodes" : [
                0,
                1,
                2,
                3,
                4
            ]
        }
    ],
    "nodes" : [
        {
            "name" : "Camera.001",
            "rotation" : [
                0.483536034822464,
                0.33687159419059753,
                -0.20870360732078552,
                0.7804827094078064
            ],
            "translation" : [
                7.481131553649902,
                5.34366512298584,
                6.5076398849487305
            ]
        },
        {
            "name" : "Lamp",
            "rotation" : [
                0.16907551884651184,
                0.7558804750442505,
                -0.2721710503101349,
                0.5709475874900818
            ],
            "translation" : [
                0,
                1.600000023841858,
                0
            ]
        },
        {
            "name" : "Light.001",
            "rotation" : [
                0.16907575726509094,
                0.7558803558349609,
                -0.27217137813568115,
                0.570947527885437
            ],
            "translation" : [
                4.076245307922363,
                5.903861999511719,
                -1.0054539442062378
            ]
        },
        {
            "name" : "Camera.002",
            "rotation" : [
                0.483536034822464,
                0.33687159419059753,
                -0.20870360732078552,
                0.7804827094078064
            ],
            "translation" : [
                7.358891487121582,
                4.958309173583984,
                6.925790786743164
            ]
        },
        {
            "mesh" : 0,
            "name" : "Mesh_0",
            "rotation" : [
                0.7071068286895752,
                0,
                0,
                0.7071067094802856
            ],
            "scale" : [
                2,
                2,
                2
            ],
            "translation" : [
                -0.10349995642900467,
                0.24642351269721985,
                -0.04598104953765869
            ]
        }
    ],
    "materials" : [
        {
            "doubleSided" : true,
            "name" : "Material_0.002",
            "pbrMetallicRoughness" : {
                "baseColorFactor" : [
                    0.800000011920929,
                    0.800000011920929,
                    0.800000011920929,
                    1
                ],
                "metallicFactor" : 0
            }
        }
    ],
    "meshes" : [
        {
            "name" : "Mesh_0",
            "primitives" : [
                {
                    "attributes" : {
                        "POSITION" : 0,
                        "NORMAL" : 1,
                        "TEXCOORD_0" : 2
                    },
                    "indices" : 3,
                    "material" : 0
                }
            ]
        }
    ],
    "accessors" : [
        {
            "bufferView" : 0,
            "componentType" : 5126,
            "count" : 7549,
            "max" : [
                0.09027799963951111,
                0.06746099889278412,
                0.12206900119781494
            ],
            "min" : [
                0.006496000103652477,
                -0.019680999219417572,
                0.04469799995422363
            ],
            "type" : "VEC3"
        },
        {
            "bufferView" : 1,
            "componentType" : 5126,
            "count" : 7549,
            "type" : "VEC3"
        },
        {
            "bufferView" : 2,
            "componentType" : 5126,
            "count" : 7549,
            "type" : "VEC2"
        },
        {
            "bufferView" : 3,
            "componentType" : 5123,
            "count" : 7953,
            "type" : "SCALAR"
        }
    ],
    "bufferViews" : [
        {
            "buffer" : 0,
            "byteLength" : 90588,
            "byteOffset" : 0
        },
        {
            "buffer" : 0,
            "byteLength" : 90588,
            "byteOffset" : 90588
        },
        {
            "buffer" : 0,
            "byteLength" : 60392,
            "byteOffset" : 181176
        },
        {
            "buffer" : 0,
            "byteLength" : 15906,
            "byteOffset" : 241568
        }
    ],
    "buffers" : [
        {
            "byteLength" : 257476,
            "uri" : "podstavec.bin"
        }
    ]
}
